<?xml version="1.0" encoding="UTF-8" standalone="no"?>
<svg
   xmlns:dc="http://purl.org/dc/elements/1.1/"
   xmlns:cc="http://creativecommons.org/ns#"
   xmlns:rdf="http://www.w3.org/1999/02/22-rdf-syntax-ns#"
   xmlns:svg="http://www.w3.org/2000/svg"
   xmlns="http://www.w3.org/2000/svg"
   xmlns:sodipodi="http://sodipodi.sourceforge.net/DTD/sodipodi-0.dtd"
   xmlns:inkscape="http://www.inkscape.org/namespaces/inkscape"
   inkscape:version="1.0 (4035a4fb49, 2020-05-01)"
   sodipodi:docname="close.svg"
   id="svg4"
   version="1.1"
   width="365.696pt"
   viewBox="0 0 365.696 365.696"
   height="365.696pt">
  <metadata
     id="metadata10">
    <rdf:RDF>
      <cc:Work
         rdf:about="">
        <dc:format>image/svg+xml</dc:format>
        <dc:type
           rdf:resource="http://purl.org/dc/dcmitype/StillImage" />
      </cc:Work>
    </rdf:RDF>
  </metadata>
  <defs
     id="defs8" />
  <sodipodi:namedview
     inkscape:current-layer="svg4"
     inkscape:window-maximized="0"
     inkscape:window-y="0"
     inkscape:window-x="0"
     inkscape:cy="243.79734"
     inkscape:cx="243.79734"
     inkscape:zoom="1.7432512"
     showgrid="false"
     id="namedview6"
     inkscape:window-height="480"
     inkscape:window-width="723"
     inkscape:pageshadow="2"
     inkscape:pageopacity="0"
     guidetolerance="10"
     gridtolerance="10"
     objecttolerance="10"
     borderopacity="1"
     bordercolor="#666666"
     pagecolor="#ffffff" />
  <path
     style="fill:#ffffff"
     id="path2"
     d="m243.1875 182.859375 113.132812-113.132813c12.5-12.5 12.5-32.765624 0-45.246093l-15.082031-15.082031c-12.503906-12.503907-32.769531-12.503907-45.25 0l-113.128906 113.128906-113.132813-113.152344c-12.5-12.5-32.765624-12.5-45.246093 0l-15.105469 15.082031c-12.5 12.503907-12.5 32.769531 0 45.25l113.152344 113.152344-113.128906 113.128906c-12.503907 12.503907-12.503907 32.769531 0 45.25l15.082031 15.082031c12.5 12.5 32.765625 12.5 45.246093 0l113.132813-113.132812 113.128906 113.132812c12.503907 12.5 32.769531 12.5 45.25 0l15.082031-15.082031c12.5-12.503906 12.5-32.769531 0-45.25zm0 0" />
</svg>
