<?xml version="1.0" encoding="iso-8859-1"?>
<!-- Generator: Adobe Illustrator 16.0.0, SVG Export Plug-In . SVG Version: 6.00 Build 0)  -->
<!DOCTYPE svg PUBLIC "-//W3C//DTD SVG 1.1//EN" "http://www.w3.org/Graphics/SVG/1.1/DTD/svg11.dtd">
<svg version="1.1" id="Capa_1" xmlns="http://www.w3.org/2000/svg" xmlns:xlink="http://www.w3.org/1999/xlink" x="0px" y="0px"
	 width="276.167px" height="276.167px" viewBox="0 0 276.167 276.167" style="enable-background:new 0 0 276.167 276.167;"
	 xml:space="preserve">
<g>
	<g>
		
		
		<path d="M243.873,67.059c17.804,0,32.294-14.486,32.294-32.293S261.689,2.471,243.873,2.471s-32.294,14.487-32.294,32.294
			S226.068,67.059,243.873,67.059z"/>
		<path d="M136.819,170.539c17.804,0,32.294-14.483,32.294-32.293c0-17.811-14.478-32.297-32.294-32.297
			c-17.813,0-32.294,14.486-32.294,32.297C104.525,156.056,119.012,170.539,136.819,170.539z"/>
		<path d="M243.038,170.539c17.811,0,32.294-14.483,32.294-32.293c0-17.811-14.483-32.297-32.294-32.297
			s-32.306,14.486-32.306,32.297C210.732,156.056,225.222,170.539,243.038,170.539z"/>
		<path d="M33.039,209.108c-17.807,0-32.3,14.483-32.3,32.294c0,17.804,14.493,32.293,32.3,32.293s32.293-14.482,32.293-32.293
			S50.846,209.108,33.039,209.108z"/>
		<path d="M137.564,209.108c-17.808,0-32.3,14.483-32.3,32.294c0,17.804,14.487,32.293,32.3,32.293
			c17.804,0,32.293-14.482,32.293-32.293S155.368,209.108,137.564,209.108z"/>
		<path d="M243.771,209.108c-17.804,0-32.294,14.483-32.294,32.294c0,17.804,14.49,32.293,32.294,32.293
			c17.811,0,32.294-14.482,32.294-32.293S261.575,209.108,243.771,209.108z"/>
	</g>
</g>
<g>
</g>
<g>
</g>
<g>
</g>
<g>
</g>
<g>
</g>
<g>
</g>
<g>
</g>
<g>
</g>
<g>
</g>
<g>
</g>
<g>
</g>
<g>
</g>
<g>
</g>
<g>
</g>
<g>
</g>
</svg>
