<?xml version="1.0" encoding="UTF-8" standalone="no"?>
<svg
   xmlns:dc="http://purl.org/dc/elements/1.1/"
   xmlns:cc="http://creativecommons.org/ns#"
   xmlns:rdf="http://www.w3.org/1999/02/22-rdf-syntax-ns#"
   xmlns:svg="http://www.w3.org/2000/svg"
   xmlns="http://www.w3.org/2000/svg"
   xmlns:sodipodi="http://sodipodi.sourceforge.net/DTD/sodipodi-0.dtd"
   xmlns:inkscape="http://www.inkscape.org/namespaces/inkscape"
   inkscape:version="1.0 (4035a4fb49, 2020-05-01)"
   sodipodi:docname="notfy.svg"
   version="1.1"
   width="512"
   viewBox="0 0 512 512"
   height="512"
   enable-background="new 0 0 512 512"
   id="Capa_1">
  <metadata
     id="metadata72">
    <rdf:RDF>
      <cc:Work
         rdf:about="">
        <dc:format>image/svg+xml</dc:format>
        <dc:type
           rdf:resource="http://purl.org/dc/dcmitype/StillImage" />
      </cc:Work>
    </rdf:RDF>
  </metadata>
  <defs
     id="defs70" />
  <sodipodi:namedview
     inkscape:current-layer="Capa_1"
     inkscape:window-maximized="0"
     inkscape:window-y="0"
     inkscape:window-x="0"
     inkscape:cy="256"
     inkscape:cx="256"
     inkscape:zoom="1.6601562"
     showgrid="false"
     id="namedview68"
     inkscape:window-height="480"
     inkscape:window-width="723"
     inkscape:pageshadow="2"
     inkscape:pageopacity="0"
     guidetolerance="10"
     gridtolerance="10"
     objecttolerance="10"
     borderopacity="1"
     bordercolor="#666666"
     pagecolor="#ffffff" />
  <g
     style="fill:#ffffff"
     id="g65">
    <path
       style="fill:#ffffff"
       id="path53"
       d="m423.576 187.702c-3.706-7.412-.703-16.421 6.709-20.127l60-30c7.412-3.691 16.421-.703 20.127 6.709s.703 16.421-6.709 20.127l-60 30c-7.487 3.719-16.439.646-20.127-6.709z" />
    <path
       style="fill:#ffffff"
       id="path55"
       d="m490.285 344.411-60-30c-7.412-3.706-10.415-12.715-6.709-20.127 3.735-7.397 12.715-10.371 20.127-6.709l60 30c7.412 3.706 10.415 12.715 6.709 20.127-3.691 7.362-12.647 10.424-20.127 6.709z" />
    <path
       style="fill:#ffffff"
       id="path57"
       d="m496.994 255.994h-60c-8.291 0-15-6.709-15-15s6.709-15 15-15h60c8.291 0 15 6.709 15 15s-6.709 15-15 15z" />
    <path
       style="fill:#ffffff"
       id="path59"
       d="m377 61c-8.291 0-15 6.709-15 15v21.418c-54.229 34.717-118.104 57.162-182 64.891v157.383c63.896 7.729 127.771 30.174 182 64.891v21.417c0 8.291 6.709 15 15 15s15-6.709 15-15v-330c0-8.291-6.709-15-15-15z" />
    <path
       style="fill:#ffffff"
       id="path61"
       d="m145.386 423.695c-13.812-24.862-25.743-54.064-16.553-79.761l-74.077-8.247c-5.57-.617-10.933-1.818-16.15-3.333-11.027 31.934-10.029 63.353-9.075 86.858.235 6.021.469 11.646.469 16.788 0 8.291 6.709 15 15 15h90c5.2 0 10.034-2.695 12.759-7.119 2.739-4.424 2.988-9.946.659-14.59z" />
    <path
       style="fill:#ffffff"
       id="path63"
       d="m0 241c0 33.311 24.961 61.201 58.066 64.878l91.934 10.223v-150.202l-91.934 10.223c-33.105 3.677-58.066 31.567-58.066 64.878z" />
  </g>
</svg>
