<?xml version="1.0" encoding="UTF-8" standalone="no"?>
<svg
   xmlns:dc="http://purl.org/dc/elements/1.1/"
   xmlns:cc="http://creativecommons.org/ns#"
   xmlns:rdf="http://www.w3.org/1999/02/22-rdf-syntax-ns#"
   xmlns:svg="http://www.w3.org/2000/svg"
   xmlns="http://www.w3.org/2000/svg"
   xmlns:sodipodi="http://sodipodi.sourceforge.net/DTD/sodipodi-0.dtd"
   xmlns:inkscape="http://www.inkscape.org/namespaces/inkscape"
   inkscape:version="1.0 (4035a4fb49, 2020-05-01)"
   sodipodi:docname="play-button.svg"
   xml:space="preserve"
   style="enable-background:new 0 0 142.448 142.448;"
   viewBox="0 0 142.448 142.448"
   y="0px"
   x="0px"
   id="Capa_1"
   version="1.1"><metadata
   id="metadata256"><rdf:RDF><cc:Work
       rdf:about=""><dc:format>image/svg+xml</dc:format><dc:type
         rdf:resource="http://purl.org/dc/dcmitype/StillImage" /></cc:Work></rdf:RDF></metadata><defs
   id="defs254" /><sodipodi:namedview
   inkscape:current-layer="Capa_1"
   inkscape:window-maximized="0"
   inkscape:window-y="0"
   inkscape:window-x="0"
   inkscape:cy="151.19709"
   inkscape:cx="-111.89726"
   inkscape:zoom="0.74588623"
   showgrid="false"
   id="namedview252"
   inkscape:window-height="480"
   inkscape:window-width="723"
   inkscape:pageshadow="2"
   inkscape:pageopacity="0"
   guidetolerance="10"
   gridtolerance="10"
   objecttolerance="10"
   borderopacity="1"
   bordercolor="#666666"
   pagecolor="#ffffff" />
<g
   style="fill:#ffffff"
   id="g219">
	<path
   id="path215"
   d="M142.411,68.9C141.216,31.48,110.968,1.233,73.549,0.038c-20.361-0.646-39.41,7.104-53.488,21.639   C6.527,35.65-0.584,54.071,0.038,73.549c1.194,37.419,31.442,67.667,68.861,68.861c0.779,0.025,1.551,0.037,2.325,0.037   c19.454,0,37.624-7.698,51.163-21.676C135.921,106.799,143.033,88.377,142.411,68.9z M111.613,110.336   c-10.688,11.035-25.032,17.112-40.389,17.112c-0.614,0-1.228-0.01-1.847-0.029c-29.532-0.943-53.404-24.815-54.348-54.348   c-0.491-15.382,5.122-29.928,15.806-40.958c10.688-11.035,25.032-17.112,40.389-17.112c0.614,0,1.228,0.01,1.847,0.029   c29.532,0.943,53.404,24.815,54.348,54.348C127.91,84.76,122.296,99.306,111.613,110.336z"
   style="fill:#ffffff" />
	<path
   id="path217"
   d="M94.585,67.086L63.001,44.44c-3.369-2.416-8.059-0.008-8.059,4.138v45.293   c0,4.146,4.69,6.554,8.059,4.138l31.583-22.647C97.418,73.331,97.418,69.118,94.585,67.086z"
   style="fill:#ffffff" />
</g>
<g
   id="g221">
</g>
<g
   id="g223">
</g>
<g
   id="g225">
</g>
<g
   id="g227">
</g>
<g
   id="g229">
</g>
<g
   id="g231">
</g>
<g
   id="g233">
</g>
<g
   id="g235">
</g>
<g
   id="g237">
</g>
<g
   id="g239">
</g>
<g
   id="g241">
</g>
<g
   id="g243">
</g>
<g
   id="g245">
</g>
<g
   id="g247">
</g>
<g
   id="g249">
</g>
</svg>
