<?xml version="1.0" encoding="UTF-8" standalone="no"?>
<svg
   xmlns:dc="http://purl.org/dc/elements/1.1/"
   xmlns:cc="http://creativecommons.org/ns#"
   xmlns:rdf="http://www.w3.org/1999/02/22-rdf-syntax-ns#"
   xmlns:svg="http://www.w3.org/2000/svg"
   xmlns="http://www.w3.org/2000/svg"
   xmlns:sodipodi="http://sodipodi.sourceforge.net/DTD/sodipodi-0.dtd"
   xmlns:inkscape="http://www.inkscape.org/namespaces/inkscape"
   inkscape:version="1.0 (4035a4fb49, 2020-05-01)"
   sodipodi:docname="settings.svg"
   xml:space="preserve"
   style="enable-background:new 0 0 426.667 426.667;"
   viewBox="0 0 426.667 426.667"
   y="0px"
   x="0px"
   id="Capa_1"
   version="1.1"><metadata
   id="metadata43"><rdf:RDF><cc:Work
       rdf:about=""><dc:format>image/svg+xml</dc:format><dc:type
         rdf:resource="http://purl.org/dc/dcmitype/StillImage" /></cc:Work></rdf:RDF></metadata><defs
   id="defs41" /><sodipodi:namedview
   inkscape:current-layer="Capa_1"
   inkscape:window-maximized="0"
   inkscape:window-y="0"
   inkscape:window-x="0"
   inkscape:cy="265.83798"
   inkscape:cx="64.125139"
   inkscape:zoom="0.4980465"
   showgrid="false"
   id="namedview39"
   inkscape:window-height="480"
   inkscape:window-width="723"
   inkscape:pageshadow="2"
   inkscape:pageopacity="0"
   guidetolerance="10"
   gridtolerance="10"
   objecttolerance="10"
   borderopacity="1"
   bordercolor="#666666"
   pagecolor="#ffffff" />
<g
   style="fill:#ffffff"
   id="g6">
	<g
   style="fill:#ffffff"
   id="g4">
		<path
   style="fill:#ffffff"
   id="path2"
   d="M416.8,269.44l-45.013-35.307c0.853-6.827,1.493-13.76,1.493-20.8s-0.64-13.973-1.493-20.8l45.12-35.307    c4.053-3.2,5.227-8.96,2.56-13.653L376.8,69.653c-2.667-4.587-8.213-6.507-13.013-4.587l-53.12,21.44    c-10.987-8.427-23.04-15.573-36.053-21.013l-8-56.533C265.653,3.947,261.28,0,255.947,0h-85.333c-5.333,0-9.707,3.947-10.56,8.96    l-8,56.533c-13.013,5.44-25.067,12.48-36.053,21.013l-53.12-21.44c-4.8-1.813-10.347,0-13.013,4.587L7.2,143.573    c-2.667,4.587-1.493,10.347,2.56,13.653l45.013,35.307c-0.853,6.827-1.493,13.76-1.493,20.8s0.64,13.973,1.493,20.8L9.76,269.44    c-4.053,3.2-5.227,8.96-2.56,13.653l42.667,73.92c2.667,4.587,8.213,6.507,13.013,4.587L116,340.16    c10.987,8.427,23.04,15.573,36.053,21.013l8,56.533c0.853,5.013,5.227,8.96,10.56,8.96h85.333c5.333,0,9.707-3.947,10.56-8.96    l8-56.533c13.013-5.44,25.067-12.48,36.053-21.013l53.12,21.44c4.8,1.813,10.347,0,13.013-4.587l42.667-73.92    C422.027,278.507,420.853,272.747,416.8,269.44z M213.28,288c-41.28,0-74.667-33.387-74.667-74.667S172,138.667,213.28,138.667    s74.667,33.387,74.667,74.667S254.56,288,213.28,288z" />
	</g>
</g>
<g
   id="g8">
</g>
<g
   id="g10">
</g>
<g
   id="g12">
</g>
<g
   id="g14">
</g>
<g
   id="g16">
</g>
<g
   id="g18">
</g>
<g
   id="g20">
</g>
<g
   id="g22">
</g>
<g
   id="g24">
</g>
<g
   id="g26">
</g>
<g
   id="g28">
</g>
<g
   id="g30">
</g>
<g
   id="g32">
</g>
<g
   id="g34">
</g>
<g
   id="g36">
</g>
</svg>
